<?xml version="1.0" encoding="UTF-8"?><svg id="a" xmlns="http://www.w3.org/2000/svg" viewBox="0 0 200 200"><defs><style>.b{fill:none;}</style></defs><rect class="b" width="200" height="200"/><g><path d="M100,14.86C53.05,14.86,14.86,53.05,14.86,100s38.19,85.14,85.14,85.14,85.14-38.19,85.14-85.14S146.95,14.86,100,14.86Zm74.49,60.46h-5.23c-1.61,0-3.23,.38-4.67,1.1l-1.92,.96c-1.21,.6-2.66,.51-3.79-.24l-7.24-4.82c-.55-.36-1.19-.56-1.85-.56h-.88l2.47-3.7c.12-.19,.33-.3,.55-.3h5.19v1.45c0,1.84,1.49,3.33,3.33,3.33,1.64,0,3-1.19,3.28-2.75l1.22,.61c1.2,.6,2.54,.92,3.88,.92h4.21c.52,1.32,1,2.65,1.45,4Zm-24.92-30.76c0-.06,.02-.12,.06-.16l2.51-2.51c.08-.08,.16-.17,.24-.26,1.47,1.32,2.89,2.69,4.26,4.12l-2.1,2.1c-1.3,1.3-1.3,3.41,0,4.72,.65,.65,1.5,.98,2.36,.98s1.71-.33,2.36-.98l1.79-1.79c3.46,4.28,6.48,8.93,8.99,13.88h-1.21c-.31,0-.62-.07-.9-.21l-5.14-2.57c-1.01-.51-2.15-.77-3.28-.77h-7.58c-2.46,0-4.74,1.22-6.1,3.27l-4.93,7.4h-3.11c-1.35,0-2.45-1.1-2.45-2.45v-5.88c0-.1,.06-.18,.15-.21l6.51-2.17c1.62-.54,3.12-1.47,4.33-2.67,2.09-2.09,3.24-4.87,3.24-7.83v-5.99h0Zm-101.96-2.93c.07,.09,.15,.18,.24,.26l3.56,3.56c.62,.63,1.47,.98,2.36,.98s1.73-.35,2.36-.98l5.03-5.03c.71-.71,1.66-1.11,2.67-1.11h4.39v.22c0,1.16,.6,2.23,1.58,2.84,.98,.61,2.21,.66,3.24,.15l5.82-2.91c.39-.19,.82-.29,1.25-.29h11.9c-1.3,.85-2.2,2.2-2.48,3.81-.39,2.27,.55,4.47,2.47,5.74l4.58,3.06c.06,.04,.1,.11,.1,.18v1.65c0,.12-.1,.22-.22,.22h-1.53c-2.2,0-4.26,.86-5.82,2.41l-22.42,22.42s-.1,.06-.16,.06h-5.64c-5.76,0-10.45,4.69-10.45,10.45v1.62l-3.7-.74c-.88-.18-1.62-.74-2.02-1.54l-2.2-4.39c-.56-1.13-1.72-1.84-2.98-1.84h-1.99c-1.63,0-3.07-1.04-3.58-2.58l-4.64-13.93c4.48-9.25,10.72-17.49,18.29-24.29Zm52.39,136.84c-43.27,0-78.47-35.2-78.47-78.47,0-8.57,1.39-16.82,3.94-24.55l2.17,6.51c1.42,4.25,5.36,7.11,9.84,7.14l1.27,2.55c1.33,2.66,3.76,4.52,6.67,5.1l12.72,2.54c.71,.14,1.37,.49,1.88,1.01,1.03,1.03,2.25,1.82,3.58,2.34l-2.33,6.98c-.11,.34-.17,.7-.17,1.05v7.11c0,3.27,1.56,6.4,4.18,8.36l8.54,6.4c.95,.71,1.51,1.84,1.51,3.02v19.19c0,2.07,.61,4.07,1.75,5.8l5.13,7.69c1.12,1.67,2.98,2.67,4.99,2.67h1.24c2.33,0,4.22-1.9,4.22-4.22v-6.1c0-1.48,.58-2.88,1.63-3.93l6.58-6.58c1.34-1.34,2.36-2.99,2.95-4.78l2.08-6.25c.03-.09,.12-.15,.21-.15h1.77c3.17,0,5.92-2.15,6.69-5.22l2.39-9.58c.58-2.33-.11-4.84-1.81-6.54l-4.65-4.65c-1.3-1.3-3.03-2.02-4.87-2.02h-4.26l-12.21-12.21c-1.3-1.3-3.03-2.02-4.87-2.02h-16.23c-.05,0-.1,0-.16,0h-.57c-.98,0-1.91-.38-2.6-1.08-1.45-1.45-3.28-2.43-5.29-2.83l-2.35-.47v-2.96c0-2.08,1.7-3.78,3.78-3.78h3.78v.22c0,1.84,1.49,3.33,3.33,3.33s3.33-1.49,3.33-3.33v-2.18s.04-.04,.06-.06l22.42-22.42c.29-.29,.68-.46,1.1-.46h1.53c3.8,0,6.89-3.09,6.89-6.89v-1.65c0-2.31-1.15-4.45-3.07-5.73l-2.81-1.88,5.4-1.35c2.38-.59,4.04-2.72,4.04-5.17,0-2.94-2.39-5.33-5.33-5.33h-21.46c-1.46,0-2.92,.35-4.23,1l-2.2,1.1c-1.02-1.28-2.59-2.1-4.35-2.1h-5.5c-2.79,0-5.41,1.09-7.39,3.06l-2.67,2.67-1-1c13.15-9.94,29.51-15.85,47.23-15.85s34.08,5.91,47.23,15.85l-2.31,2.31c-1.3,1.3-2.02,3.03-2.02,4.87v5.99c0,1.18-.46,2.28-1.29,3.11-.48,.48-1.07,.85-1.72,1.06l-6.51,2.17c-2.82,.94-4.71,3.57-4.71,6.54v5.88c0,1.68,.47,3.25,1.26,4.6-1.35,.91-2.54,2.08-3.47,3.48l-3.15,4.72c-1.15,1.72-1.75,3.73-1.75,5.8v6.36c0,2.07,.61,4.07,1.75,5.8l3.81,5.71c1.94,2.91,5.19,4.65,8.69,4.65h8.85c1.63,0,3.07,1.04,3.58,2.58l.79,2.38c.64,1.93,.97,3.94,.97,5.98v2.52c0,3.33,.46,6.63,1.38,9.83l5.72,20.01c-14.32,15.21-34.62,24.72-57.11,24.72Zm-22.19-51.26l-8.54-6.4c-.95-.71-1.51-1.84-1.51-3.02v-6.57l2.63-7.88h13.91c.06,0,.12,.02,.16,.06l13.19,13.19c.62,.63,1.47,.98,2.36,.98h5.64c.06,0,.12,.02,.16,.06l4.65,4.65c.06,.06,.08,.14,.06,.21l-2.39,9.58c-.02,.1-.11,.17-.22,.17h-1.77c-2.97,0-5.6,1.89-6.54,4.71l-2.08,6.25c-.27,.81-.74,1.57-1.34,2.17l-6.58,6.58c-2.31,2.31-3.58,5.38-3.58,8.65v1.31l-3.37-5.05c-.42-.62-.63-1.35-.63-2.1v-19.19c0-3.27-1.56-6.4-4.18-8.36Zm79.99,4.7c-.74-2.6-1.12-5.29-1.12-8v-2.52c0-2.75-.44-5.47-1.31-8.08l-.79-2.38c-1.42-4.27-5.41-7.14-9.91-7.14h-8.85c-1.27,0-2.44-.63-3.14-1.68l-3.81-5.71c-.42-.62-.64-1.35-.64-2.1v-6.36c0-.75,.22-1.47,.64-2.1l3.15-4.72c1.12-1.67,2.98-2.67,4.99-2.67h11.78l6.4,4.26c3.11,2.07,7.12,2.32,10.47,.65l1.92-.96c.52-.26,1.11-.4,1.69-.4h7.13c1.36,5.78,2.09,11.81,2.09,18.01,0,17.91-6.03,34.43-16.17,47.65l-4.5-15.74Z"/><path d="M85.2,45.16c-.82-1.65-2.83-2.32-4.47-1.49l-7.11,3.56c-1.65,.82-2.32,2.83-1.49,4.47,.58,1.17,1.76,1.84,2.98,1.84,.5,0,1.01-.11,1.49-.35l7.11-3.56c1.65-.82,2.32-2.83,1.49-4.47Z"/><path d="M135.57,39.76c-1.84,0-3.33,1.49-3.33,3.33v3.56c0,1.84,1.49,3.33,3.33,3.33s3.33-1.49,3.33-3.33v-3.56c0-1.84-1.49-3.33-3.33-3.33Z"/></g></svg>