<?xml version="1.0" encoding="UTF-8"?><svg id="a" xmlns="http://www.w3.org/2000/svg" viewBox="0 0 200 200"><defs><style>.b{fill:none;}</style></defs><rect class="b" width="200" height="200"/><g><path d="M122.48,134.8c-1.66-1-3.37-2-5.07-2.99,.4-3.42,.4-6.87,0-10.28,1.71-.99,3.42-1.99,5.07-2.99,2.78-1.67,3.94-5.2,2.7-8.21h0l-3.63-8.77c-1.25-3.01-4.56-4.68-7.71-3.9-1.87,.47-3.79,.96-5.7,1.47-2.13-2.7-4.57-5.14-7.27-7.27,.51-1.91,1.01-3.82,1.47-5.7,.79-3.15-.89-6.47-3.9-7.71l-8.77-3.63c-3.01-1.25-6.54-.09-8.21,2.7-1,1.66-2,3.36-2.99,5.07-3.42-.4-6.87-.4-10.28,0-.99-1.71-1.99-3.42-2.98-5.07-1.67-2.78-5.2-3.94-8.21-2.7l-8.77,3.63c-3.01,1.25-4.68,4.56-3.9,7.71,.47,1.88,.96,3.79,1.47,5.7-2.69,2.13-5.14,4.57-7.27,7.27-1.91-.51-3.83-1.01-5.7-1.48-3.15-.79-6.47,.89-7.71,3.9l-3.63,8.77c-1.25,3.01-.09,6.54,2.7,8.21,1.66,1,3.36,2,5.07,2.99-.4,3.42-.4,6.87,0,10.28-1.71,.99-3.41,1.99-5.07,2.99-2.78,1.67-3.94,5.2-2.7,8.21l3.63,8.77c1.25,3.01,4.56,4.68,7.71,3.9,1.87-.47,3.79-.96,5.7-1.47,2.13,2.69,4.57,5.14,7.27,7.27-.51,1.91-1.01,3.83-1.47,5.7-.79,3.15,.89,6.47,3.9,7.71l8.77,3.63c.81,.34,1.67,.5,2.51,.5,2.27,0,4.48-1.17,5.7-3.2,.99-1.65,1.99-3.35,2.99-5.07,3.42,.4,6.87,.4,10.28,0,.98,1.7,1.98,3.41,2.98,5.07,1.67,2.78,5.2,3.94,8.21,2.7l8.77-3.63c3.01-1.25,4.68-4.56,3.9-7.71-.46-1.86-.96-3.78-1.47-5.7,2.69-2.13,5.14-4.57,7.27-7.27,1.91,.51,3.82,1.01,5.7,1.47,3.15,.79,6.47-.89,7.71-3.9l3.63-8.77c1.25-3.01,.08-6.54-2.7-8.21Zm-7.32,13.92c-1.8-.45-3.64-.93-5.46-1.42-2.59-.7-5.31,.21-6.95,2.32-1.88,2.42-4.06,4.59-6.47,6.47-2.1,1.64-3.01,4.36-2.31,6.95,.49,1.84,.97,3.67,1.42,5.46l-8.06,3.34c-.96-1.6-1.92-3.24-2.86-4.87-1.34-2.32-3.91-3.6-6.55-3.28-3.03,.38-6.11,.38-9.15,0-2.65-.33-5.22,.96-6.55,3.28-.95,1.65-1.91,3.29-2.86,4.87l-8.06-3.34c.45-1.8,.93-3.63,1.42-5.46,.7-2.59-.21-5.31-2.32-6.95-2.42-1.88-4.59-4.06-6.47-6.47-1.64-2.1-4.36-3.01-6.95-2.31-1.83,.49-3.66,.97-5.46,1.42l-3.34-8.06c1.59-.96,3.23-1.92,4.87-2.86,2.32-1.34,3.61-3.91,3.28-6.55-.38-3.03-.38-6.11,0-9.15,.33-2.65-.96-5.22-3.28-6.55-1.64-.94-3.27-1.9-4.87-2.86l3.34-8.06c1.8,.45,3.63,.93,5.46,1.42,2.58,.7,5.31-.21,6.95-2.32,1.88-2.42,4.06-4.59,6.47-6.47,2.1-1.64,3.01-4.36,2.31-6.95-.49-1.82-.97-3.66-1.42-5.46l8.06-3.34c.95,1.59,1.91,3.22,2.86,4.87,1.34,2.32,3.91,3.61,6.55,3.28,3.03-.38,6.11-.38,9.15,0,2.65,.33,5.22-.96,6.55-3.28,.94-1.64,1.9-3.27,2.86-4.87l8.06,3.34c-.45,1.8-.93,3.64-1.42,5.46-.7,2.58,.21,5.31,2.32,6.95,2.42,1.88,4.59,4.06,6.47,6.47,1.64,2.1,4.36,3.01,6.95,2.31,1.83-.49,3.66-.97,5.46-1.42l3.34,8.06c-1.59,.95-3.23,1.91-4.87,2.86-2.32,1.34-3.61,3.91-3.28,6.55,.38,3.03,.38,6.11,0,9.15-.33,2.65,.96,5.22,3.28,6.55,1.63,.94,3.27,1.9,4.87,2.86l-3.34,8.06Z"/><path d="M95.61,117.44h0c-5.09-12.28-19.22-18.14-31.5-13.05-12.28,5.09-18.13,19.22-13.05,31.5,2.46,5.95,7.1,10.58,13.05,13.05,2.97,1.23,6.1,1.85,9.23,1.85s6.25-.62,9.23-1.85c12.28-5.09,18.13-19.22,13.05-31.5Zm-15.75,24.96c-4.2,1.74-8.83,1.74-13.04,0-4.2-1.74-7.48-5.02-9.22-9.22-3.6-8.68,.54-18.66,9.22-22.26,2.13-.88,4.33-1.3,6.5-1.3,6.69,0,13.05,3.96,15.76,10.52,3.59,8.68-.54,18.66-9.22,22.26Z"/><path d="M174.25,52.14c-1.22-.18-2.48-.36-3.74-.53-.64-2.12-1.49-4.17-2.54-6.12,.77-1.01,1.53-2.02,2.27-3.02,1.63-2.21,1.4-5.35-.55-7.29l-4.88-4.88c-1.95-1.95-5.08-2.18-7.29-.55-1,.74-2.01,1.5-3.02,2.27-1.95-1.05-4-1.9-6.12-2.54-.17-1.26-.35-2.52-.53-3.74-.41-2.72-2.79-4.77-5.54-4.77h-6.9c-2.75,0-5.14,2.05-5.54,4.77-.18,1.22-.36,2.47-.53,3.74-2.12,.64-4.17,1.49-6.12,2.54-1.01-.77-2.02-1.53-3.02-2.27-2.21-1.64-5.35-1.4-7.29,.55l-4.88,4.88c-1.95,1.95-2.18,5.08-.55,7.29,.74,.99,1.5,2.01,2.27,3.02-1.05,1.95-1.9,4-2.54,6.12-1.26,.17-2.52,.35-3.74,.53-2.72,.41-4.77,2.79-4.77,5.54v6.9c0,2.75,2.05,5.14,4.77,5.54,1.22,.18,2.48,.36,3.74,.53,.64,2.12,1.49,4.17,2.54,6.12-.77,1.01-1.53,2.02-2.27,3.02-1.63,2.21-1.4,5.35,.55,7.29l4.88,4.88c1.95,1.95,5.08,2.18,7.29,.55,1-.74,2.01-1.5,3.02-2.27,1.95,1.05,4,1.9,6.12,2.54,.17,1.26,.35,2.52,.53,3.74,.41,2.72,2.79,4.77,5.54,4.77h6.9c2.75,0,5.14-2.05,5.54-4.77,.18-1.22,.36-2.48,.53-3.74,2.12-.64,4.17-1.49,6.12-2.54,1.01,.77,2.02,1.53,3.02,2.27,2.21,1.63,5.35,1.4,7.29-.55l4.88-4.88c1.95-1.95,2.18-5.08,.55-7.29-.74-1-1.5-2.01-2.27-3.02,1.05-1.95,1.9-4,2.54-6.12,1.26-.17,2.52-.35,3.74-.53,2.72-.41,4.77-2.79,4.77-5.54v-6.9c0-2.75-2.05-5.14-4.77-5.54Zm-1.95,11.48c-1.11,.16-2.24,.32-3.37,.46-2.24,.29-4.08,1.89-4.68,4.06-.57,2.08-1.41,4.09-2.47,5.97-1.11,1.96-.94,4.39,.44,6.18,.7,.91,1.39,1.82,2.06,2.72l-3.52,3.52c-.9-.67-1.81-1.36-2.72-2.06-1.79-1.38-4.22-1.55-6.18-.44-1.88,1.07-3.89,1.9-5.96,2.47-2.17,.6-3.77,2.44-4.06,4.68-.15,1.13-.3,2.27-.46,3.38h-4.98c-.16-1.11-.32-2.24-.46-3.37-.29-2.25-1.89-4.08-4.06-4.68-2.08-.57-4.09-1.4-5.97-2.47-1.96-1.11-4.39-.94-6.18,.44-.9,.69-1.81,1.38-2.72,2.06l-3.52-3.52c.67-.9,1.36-1.81,2.06-2.72,1.38-1.79,1.55-4.22,.44-6.18-1.07-1.88-1.9-3.89-2.47-5.97-.6-2.17-2.44-3.77-4.68-4.06-1.13-.15-2.27-.3-3.38-.47v-4.98c1.11-.16,2.24-.32,3.37-.46,2.24-.29,4.08-1.89,4.68-4.06,.57-2.08,1.4-4.09,2.47-5.97,1.11-1.96,.94-4.39-.44-6.18-.7-.91-1.39-1.82-2.06-2.72l3.52-3.52c.9,.67,1.81,1.36,2.72,2.06,1.79,1.38,4.22,1.55,6.18,.44,1.88-1.07,3.89-1.9,5.96-2.47,2.17-.6,3.77-2.44,4.06-4.68,.15-1.13,.3-2.27,.47-3.37h4.98c.16,1.11,.32,2.24,.46,3.37,.29,2.25,1.89,4.08,4.06,4.68,2.08,.57,4.09,1.41,5.97,2.47,1.96,1.11,4.39,.94,6.18-.44,.9-.69,1.81-1.38,2.72-2.06l3.52,3.52c-.67,.9-1.36,1.81-2.06,2.72-1.38,1.79-1.55,4.22-.44,6.18,1.07,1.88,1.9,3.89,2.47,5.97,.6,2.17,2.44,3.77,4.68,4.06,1.13,.15,2.27,.3,3.38,.47v4.98h0Z"/><path d="M138.87,46.81c-7.9,0-14.32,6.42-14.32,14.32s6.42,14.32,14.32,14.32,14.32-6.42,14.32-14.32-6.42-14.32-14.32-14.32Zm0,22.28c-4.39,0-7.96-3.57-7.96-7.96s3.57-7.96,7.96-7.96,7.96,3.57,7.96,7.96c0,4.39-3.57,7.96-7.96,7.96Z"/></g></svg>