<?xml version="1.0" encoding="UTF-8"?><svg id="a" xmlns="http://www.w3.org/2000/svg" viewBox="0 0 200 200"><defs><style>.b{fill:none;}</style></defs><rect class="b" width="200" height="200"/><path d="M176.71,75.68c-.99-.99-2.71-.99-3.7,0l-13.18,13.18c-.42,.42-.69,.98-.75,1.58-1.04,9.92-5.49,19.27-12.55,26.33l-2.78,2.78-21.24-21.24c3.08,.47,5.98,.15,8.63-.93,1.33-.55,1.98-2.08,1.43-3.41-.55-1.33-2.07-1.97-3.41-1.43-8.45,3.46-18.38-5.97-19.48-7.06l-5.85-5.85c.69-3.26-.02-6.71-1.96-9.5-2.28-3.27-5.9-5.15-9.94-5.15l-14.68,.1c-1.27,0-2.46-.49-3.36-1.39-.91-.9-1.41-2.11-1.41-3.39v-.22c0-2.57,2.01-4.67,4.59-4.77l26.66-1.05c9.54-.37,18.99,2.51,26.68,8.13,1.05,.76,2.48,.66,3.39-.26l14-14c.49-.49,.77-1.15,.77-1.85s-.27-1.36-.77-1.85c-.99-.99-2.71-.99-3.7,0l-12.46,12.46c-8.27-5.45-18.24-8.24-28.12-7.85l-26.64,1.05-9.96-9.96c-1.02-1.02-2.68-1.02-3.7,0-.49,.49-.77,1.15-.77,1.85s.27,1.36,.77,1.85l8.15,8.15c-2.6,1.88-4.13,4.86-4.13,8.11v.22c0,2.69,1.05,5.21,2.95,7.1,1.91,1.89,4.43,2.87,7.12,2.91l14.62-.1c3.14,0,4.88,1.82,5.63,2.91,.23,.33,.43,.68,.6,1.04-.97-.49-2.24-.3-3.03,.49-.49,.49-.77,1.15-.77,1.85s.27,1.36,.77,1.85l47.73,47.73c.9,.9,1.4,2.1,1.4,3.38s-.5,2.48-1.4,3.38c-1.86,1.87-4.9,1.87-6.77,0l-30.4-30.4c-.49-.49-1.15-.77-1.85-.77h0c-.7,0-1.35,.27-1.85,.77-.49,.49-.77,1.15-.77,1.85s.27,1.36,.77,1.85l32.75,32.75c.9,.9,1.4,2.1,1.4,3.38s-.5,2.48-1.4,3.38-2.11,1.4-3.38,1.4-2.48-.5-3.38-1.4l-31.04-31.04c-.99-.99-2.71-.99-3.7,0s-1.02,2.68,0,3.7l25.44,25.44c.9,.9,1.4,2.1,1.4,3.38s-.5,2.48-1.4,3.38c-.9,.9-2.1,1.4-3.38,1.4s-2.48-.5-3.38-1.4l-27.63-27.62c-.99-.99-2.71-.99-3.7,0-1.02,1.02-1.02,2.68,0,3.7l20.49,20.49c.9,.9,1.4,2.1,1.4,3.38s-.5,2.48-1.4,3.38-2.1,1.4-3.38,1.4-2.48-.5-3.38-1.4l-37.07-37.07c-7.05-7.05-11.51-16.4-12.55-26.33-.06-.59-.33-1.15-.75-1.58l-16.96-16.96c-.99-.99-2.71-.99-3.7,0-.49,.49-.77,1.15-.77,1.85s.27,1.36,.77,1.85l16.31,16.31c1.34,10.76,6.28,20.89,13.94,28.55l2.82,2.83c-1.08,1.63-1.64,3.52-1.64,5.5,0,2.68,1.04,5.19,2.93,7.08,1.92,1.92,4.5,2.99,7.23,2.93-.03,.34-.05,.68-.05,1.01,0,2.68,1.04,5.19,2.93,7.08,2.09,2.09,4.94,3.14,7.93,2.89-.24,2.93,.81,5.85,2.89,7.93,1.89,1.89,4.41,2.93,7.08,2.93,2.22,0,4.39-.74,6.13-2.1,1.7,1.24,3.78,1.91,5.89,1.91,2.68,0,5.19-1.04,7.08-2.93,1.19-1.19,2.05-2.65,2.52-4.25l.91,.91c1.89,1.89,4.4,2.93,7.08,2.93s5.2-1.04,7.08-2.93c1.2-1.2,2.07-2.67,2.53-4.28,1.8,1.53,4.07,2.36,6.46,2.36,2.68,0,5.19-1.04,7.08-2.93,2.61-2.61,3.56-6.47,2.5-9.99,2.12-.31,4.1-1.3,5.62-2.82,3.56-3.56,3.89-9.29,.82-13.23l2.83-2.83c7.66-7.66,12.61-17.79,13.94-28.55l12.53-12.53c.49-.49,.77-1.15,.77-1.85s-.27-1.35-.77-1.85Zm-88.78,79.17c-.69,.37-1.46,.57-2.26,.57-1.28,0-2.48-.5-3.38-1.4-1.51-1.51-1.82-3.8-.83-5.64l6.47,6.47Zm-10.83-10.83c-1.84,.99-4.13,.68-5.64-.83-.9-.9-1.4-2.11-1.4-3.38,0-.79,.19-1.56,.57-2.26l6.47,6.47Zm-10.74-10.74c-.52,.19-1.07,.28-1.63,.28h0c-1.28,0-2.48-.5-3.38-1.4-.9-.9-1.4-2.11-1.4-3.38,0-.56,.1-1.11,.28-1.62l6.13,6.13Z"/></svg>